<svg xmlns="http://www.w3.org/2000/svg" viewBox="0 0 451.71 191.49"><defs><style>.cls-1{fill:#0082b3;}.cls-2{fill:#fff;}</style></defs><title>AN_logo_c_rus1</title><g id="Слой_2" data-name="Слой 2"><g id="Слой_1-2" data-name="Слой 1"><path class="cls-1" d="M33.47,147l17.75-17.75a59.18,59.18,0,1,1,76.75,0L145.72,147a84.23,84.23,0,1,0-112.25,0Z"/><path class="cls-1" d="M89.6,54.2c-38.94-43.5-78-37.15-78-37.15,42.5,23.25,78,77.32,78,77.32s35.52-54.07,78-77.32C167.62,17.05,128.53,10.7,89.6,54.2Z"/><path class="cls-1" d="M62.57,90.06a.82.82,0,0,0,.82-.8h0v-3l3,1.74a.8.8,0,0,0,.43.09.76.76,0,0,0,.69-.39.81.81,0,0,0-.28-1.11h0l-2.94-1.71,2.49-1.48a.81.81,0,0,0,.3-1.11v0A.78.78,0,0,0,66,81.93l-.08,0-3.32,2L57.31,80.9l5.28-3,3.32,2a.67.67,0,0,0,.39.12.91.91,0,0,0,.72-.39.82.82,0,0,0-.27-1.12h0L64.24,77l3-1.71a.84.84,0,0,0,.42-1.1l-.09-.15a.82.82,0,0,0-1.11-.31h0l-3,1.72v-3a.82.82,0,1,0-1.64,0V76.4l-5.25,3V73.29l3.31-1.89a.83.83,0,0,0,.33-1.12A.8.8,0,0,0,59.06,70l0,0L56.51,71.4V68.06a.83.83,0,0,0-.83-.83h0a.82.82,0,0,0-.77.83v3.4L52.3,70a.77.77,0,0,0-1.06.25l0,0a.8.8,0,0,0,.27,1.1l0,0,3.39,1.9v6.11l-5.37-3.1V72.5a.79.79,0,0,0-.75-.83h0a.83.83,0,0,0-.81.83v2.88L45,73.72a.82.82,0,0,0-1.11.31v0a.82.82,0,0,0,.29,1.12h0l2.92,1.69-2.6,1.48a.78.78,0,0,0-.32,1.07.21.21,0,0,0,0,.06.77.77,0,0,0,.7.39,1.06,1.06,0,0,0,.43-.12l3.33-2,5.36,3.07L48.71,84l-3.33-2a.81.81,0,0,0-1.12.25v0a.84.84,0,0,0,.28,1.13l2.55,1.51-2.92,1.7a.82.82,0,0,0-.31,1.12h0a.77.77,0,0,0,.7.42A1.48,1.48,0,0,0,45,88l2.94-1.64v2.88a.81.81,0,0,0,.81.81h0a.82.82,0,0,0,.8-.82V85.38l5.39-3.07v6.08L51.52,90.3a.81.81,0,0,0-.33,1.1l0,0a.74.74,0,0,0,.69.42.93.93,0,0,0,.4-.09l2.61-1.48v3.45a.81.81,0,0,0,.8.82h0a.83.83,0,0,0,.83-.81h0v-3.4l2.52,1.43a.86.86,0,0,0,.39.09.78.78,0,0,0,.73-.42.84.84,0,0,0-.33-1.13h0l-3.31-1.85V82.28l5.25,3v3.89A.83.83,0,0,0,62.57,90.06Z"/><path class="cls-1" d="M129.49,85.32v3.89a.81.81,0,0,0,.72.9.82.82,0,0,0,.91-.72V86.21l3,1.74a.89.89,0,0,0,1.13-.3.81.81,0,0,0-.29-1.11h0l-3-1.71,2.49-1.48a.81.81,0,0,0,.31-1.1v0a.79.79,0,0,0-1.08-.29l0,0-3.33,2L125,80.86l5.28-3,3.33,2A.64.64,0,0,0,134,80a.93.93,0,0,0,.73-.39.82.82,0,0,0-.29-1.12h0L132,77l3-1.71a.83.83,0,0,0,.29-1.13.82.82,0,0,0-1.12-.29l-3,1.72v-3a.83.83,0,0,0-.73-.91.82.82,0,0,0-.9.73.54.54,0,0,0,0,.18v3.92l-5.25,3v-6.2l3.3-1.89a.81.81,0,0,0,.33-1.11h0A.78.78,0,0,0,126.8,70a.05.05,0,0,0,0,0l-2.52,1.42V68.06a.83.83,0,0,0-.83-.83h0a.82.82,0,0,0-.82.82h0v3.4L120,70a.79.79,0,0,0-1.08.25s0,0,0,0a.81.81,0,0,0,.29,1.11h0l3.4,1.92v6.11l-5.37-3.1V72.52a.81.81,0,0,0-.77-.83h0a.85.85,0,0,0-.82.83V75.4l-2.89-1.66a.8.8,0,0,0-1.11.29h0a.81.81,0,0,0,.28,1.12h0l2.93,1.69-2.56,1.53a.8.8,0,0,0-.31,1.09l0,0a.77.77,0,0,0,.7.39.93.93,0,0,0,.43-.12l3.34-2,5.35,3.07L116.45,84l-3.34-2a.82.82,0,0,0-1.13.27h0a.84.84,0,0,0,.28,1.13l2.56,1.51-2.91,1.72a.81.81,0,0,0-.31,1.1l0,0a.74.74,0,0,0,.69.42,1.66,1.66,0,0,0,.42-.12l2.89-1.66v2.88a.83.83,0,0,0,.82.81h0a.82.82,0,0,0,.8-.82V85.38l5.37-3.07v6.08l-3.4,1.91a.81.81,0,0,0-.32,1.11v0a.77.77,0,0,0,.7.42.93.93,0,0,0,.4-.09l2.61-1.48v3.45a.81.81,0,0,0,.8.82h0a.83.83,0,0,0,.83-.81h0v-3.4l2.52,1.43a.79.79,0,0,0,.38.09.78.78,0,0,0,.73-.42.83.83,0,0,0-.31-1.12h0l-3.3-1.85V82.28Z"/><path class="cls-1" d="M176.51,148.06H107.26c-8.1,1.7-13.31,7.76-15.83,11.48l12.24,12.25L89.44,186.06,75.81,172.42l12.37-12.36c-2.38-3.65-7.69-10.2-16.17-12H2.76v23.76H0v5.24H70a20.52,20.52,0,0,0,39.19,0h70v-5.22h-2.76Z"/><polygon class="cls-1" points="89.85 160 89.85 171.92 101.76 171.92 89.85 160"/><polygon class="cls-1" points="89.44 184.21 89.44 172.32 77.56 172.32 89.44 184.21"/><path class="cls-2" d="M31,112.15l3.21,5.3-.35.21c-.63-1-1.16-1.32-1.6-1a1.2,1.2,0,0,0-.29.26l-1.4,1.91,2.3,3.81,1.84-.32a1.7,1.7,0,0,0,.64-.23c.53-.32.55-.92.06-1.81l.35-.21,2,3.33-.35.21a1.67,1.67,0,0,0-1.81-.59L23.21,124.9l-.31-.52L30.58,114a1.29,1.29,0,0,0,.08-1.55v-.06Zm-.92,7.3L27,123.63l5.07-.9Z"/><path class="cls-2" d="M25.79,96.5l1.94,6.3-.39.12c-.32-.91-.66-1.31-1-1.2a.45.45,0,0,0-.25.18l-3.56,5,.67.34,3.45-1.07a1.47,1.47,0,0,0,1.19-1.7,1.67,1.67,0,0,0-.08-.3l.39-.12,1.85,6-.39.12a1.48,1.48,0,0,0-1.77-1.1,1.33,1.33,0,0,0-.28.1l-8.71,2.69a1.49,1.49,0,0,0-1.19,1.74,1.12,1.12,0,0,0,.08.26l-.39.12-1.85-6,.39-.12a1.48,1.48,0,0,0,1.8,1.08l.25-.08,4.18-1.29-5.69-3a.81.81,0,0,0-.69-.11c-.49.15-.61.7-.36,1.66l-.39.12-1.65-5.35.39-.12a4.16,4.16,0,0,0,.72,1.48,7.06,7.06,0,0,0,2.17,1.57l3.24,1.67,5-7.27c.18-.26.34-.52.5-.79a1.33,1.33,0,0,0,.09-.9Z"/><path class="cls-2" d="M24.81,81.42l.33,6.19h-.4c-.1-1.15-.41-1.71-.91-1.68a.8.8,0,0,0-.38.1L21.3,87l.24,4.45,1.78.59a1.87,1.87,0,0,0,.67.09c.62,0,.92-.55.91-1.57h.4l.21,3.89H25.1c-.05-.63-.49-1.08-1.31-1.37L12,89.06v-.61l11.64-5.6a1.3,1.3,0,0,0,.8-1.33v-.08Zm-4.25,6-4.65,2.24,4.89,1.6Z"/><path class="cls-2" d="M14.56,64.66a1.49,1.49,0,0,0,1,1.82,1.57,1.57,0,0,0,.3,0l8.52,1.53a3.35,3.35,0,0,0,1.34.06c.34-.11.57-.46.67-1V67l.28.06,1.85.28,1.74.2-.1.57a6.1,6.1,0,0,0-1.85.28,3.21,3.21,0,0,0-1.93,2.63l-.64,3.57a4.17,4.17,0,0,0,.57,3.53,5.62,5.62,0,0,0,1.83,1.25l-.09.5-3.77-.85a2.31,2.31,0,0,0-1.58-2.66,31.2,31.2,0,0,0-7.44-2.2,4,4,0,0,0-1.82-.06c-.42.17-.72.67-.88,1.49l-.42-.07,2-11Zm9.64,6.5-9.13-1.64a.88.88,0,0,0-.64.06c-.24.15-.45.68-.61,1.58s0,1.49.4,1.75a8.61,8.61,0,0,0,2.18.67c3.79.84,6.52,1.83,8.17,3l.76-4.24c.09-.52,0-.84-.4-1A4.86,4.86,0,0,0,24.2,71.16Z"/><path class="cls-2" d="M28.83,52.17l3.35,2.36L27.84,64.76l-.38-.16a1.46,1.46,0,0,0-.57-2,1.27,1.27,0,0,0-.32-.13l-8.39-3.56a1.5,1.5,0,0,0-2,.58,1.12,1.12,0,0,0-.11.25l-.37-.16,4.25-10.11,3.74,1.58-.15.36-.32-.05c-2-.42-3.35.21-4.1,1.87l-.71,1.58c-.18.39-.13.67.13.85a6,6,0,0,0,.62.31l4.1,1.73a8.71,8.71,0,0,0,.37-1.23,2,2,0,0,0-.14-1.26,6.88,6.88,0,0,0-1.65-1.58l.16-.38,6,2.52-.16.39a6.54,6.54,0,0,0-2.33-.11c-.51.13-1.06.76-1.63,1.9l4.07,1.73a1.74,1.74,0,0,0,1.05.22c.27-.08.59-.54.94-1.37a4.76,4.76,0,0,0,.29-3.34,8.26,8.26,0,0,0-1.55-2.54Z"/><path class="cls-2" d="M44,38,40.1,43l-.32-.25a1.48,1.48,0,0,0-.05-2.07,1.89,1.89,0,0,0-.27-.2L32,34.64l6.07,11-.29.37L25.7,42.57l7.51,5.86a1.45,1.45,0,0,0,2.06,0,2.2,2.2,0,0,0,.2-.23l.32.25-2.38,3.05-.32-.25A1.45,1.45,0,0,0,33,49.22l-.22-.16-7.16-5.58a1.86,1.86,0,0,0-1.27-.54,2.18,2.18,0,0,0-1.13.87l-.27-.28,3-3.87,9.4,2.65-4.73-8.64,3-3.82.32.25a1.48,1.48,0,0,0,.1,2.1,1.18,1.18,0,0,0,.22.17L41.41,38a1.47,1.47,0,0,0,2.08,0,2.43,2.43,0,0,0,.2-.25Z"/><path class="cls-2" d="M57.36,28.06l-5.07,3.7-.24-.33a1.49,1.49,0,0,0,.51-2,2.35,2.35,0,0,0-.19-.25l-4.7-6.44,1,9.77a1.45,1.45,0,0,0,1.93,0l.24.33-5.08,3.7-.24-.33a1.49,1.49,0,0,0,.51-2,2.35,2.35,0,0,0-.19-.25l-5.37-7.37a1.49,1.49,0,0,0-2-.56,1,1,0,0,0-.24.17l-.3-.3L43,22.16l.24.33a1.49,1.49,0,0,0-.48,2.05,1.84,1.84,0,0,0,.17.22l4.75,6.52-1-9.82a1.48,1.48,0,0,0-2,0l-.16-.4,5.07-3.69.24.33a1.47,1.47,0,0,0-.49,2,1.08,1.08,0,0,0,.18.24l5.41,7.39a1.48,1.48,0,0,0,2,.57,1.51,1.51,0,0,0,.26-.18Z"/><path class="cls-2" d="M71.38,22.19l-5.81,2.35-.15-.38a1.47,1.47,0,0,0,1-1.85,1.3,1.3,0,0,0-.1-.25l-1.54-3.8-.45.19-1.37,7.17-3.58,1.44-.15-.38h.11c.23-.09.41-.42.53-1l1.4-6.39a3.9,3.9,0,0,1-2.39-.12,2.82,2.82,0,0,1-1.68-1.63,3,3,0,0,1,.51-3.3,7.12,7.12,0,0,1,3-2l5.75-2.32.16.38a1.48,1.48,0,0,0-1,1.87.85.85,0,0,0,.11.26l3.42,8.45a1.47,1.47,0,0,0,1.79,1.05,1.66,1.66,0,0,0,.31-.12ZM64.5,17.65l-1.87-4.59c-.21-.52-.7-.62-1.45-.32a2.09,2.09,0,0,0-1.47,1.92,4.09,4.09,0,0,0,.39,1.68,2.89,2.89,0,0,0,1.61,1.87,4,4,0,0,0,2.46-.39Z"/><path class="cls-2" d="M91.55,13.57l-.27,4.27a1.45,1.45,0,0,0,1.16,1.72,1.84,1.84,0,0,0,.33,0V20l-6.26-.39V19.2A1.46,1.46,0,0,0,88.18,18a1.3,1.3,0,0,0,0-.34l.57-9.1a1.49,1.49,0,0,0-1.2-1.72,1.46,1.46,0,0,0-.29,0V6.4l6.27.39v.4a1.49,1.49,0,0,0-1.68,1.27,1.31,1.31,0,0,0,0,.28l-.24,3.89,4.65.28.23-3.85a1.48,1.48,0,0,0-1.16-1.74,1.84,1.84,0,0,0-.33,0V6.88l6.27.39v.41a1.49,1.49,0,0,0-1.69,1.26,1.31,1.31,0,0,0,0,.28L99,18.32A1.46,1.46,0,0,0,100.19,20a1.66,1.66,0,0,0,.32,0v.41l-6.3-.41v-.41a1.46,1.46,0,0,0,1.68-1.2,1.72,1.72,0,0,0,0-.32l.27-4.27Z"/><path class="cls-2" d="M115.14,24.85,109.23,23l.12-.38c1.11.3,1.74.22,1.89-.27a.86.86,0,0,0,0-.39L111,19.59l-4.25-1.34-1.17,1.46a1.77,1.77,0,0,0-.33.6c-.18.59.2,1.05,1.15,1.39l-.12.39-3.71-1.16.13-.39a1.64,1.64,0,0,0,1.74-.76l8-9.62.58.18,1.12,12.88a1.27,1.27,0,0,0,1,1.22h.07ZM111,18.77l-.46-5.17-3.21,4Z"/><path class="cls-2" d="M135.79,22.06a1.89,1.89,0,0,0-.6-.22,3.6,3.6,0,0,0-2,.71l-7.71,4.51a11.21,11.21,0,0,1-3,1.39,2.66,2.66,0,0,1-1.93-.35,2.63,2.63,0,0,1-1.13-1.35,1.88,1.88,0,0,1,.15-1.71,1.51,1.51,0,0,1,.91-.73,1.33,1.33,0,0,1,1.11.18,1.31,1.31,0,0,1,.61.77,1.18,1.18,0,0,1-.16,1,1.88,1.88,0,0,1-.35.39,1.5,1.5,0,0,0-.35.36.34.34,0,0,0,.08.49l.08,0c.57.35,1.67,0,3.28-1l.17-.1-.21-10.12a2,2,0,0,0-1.11-1.66l.23-.37,5.84,3.55-.22.36-.3-.18c-.61-.37-1-.39-1.22-.05a3.64,3.64,0,0,0-.19,1.64V24.7l4.12-2.5a3.15,3.15,0,0,0,1-.89.72.72,0,0,0-.06-.87,4,4,0,0,0-.75-.62l.22-.36L136,21.68Z"/><path class="cls-2" d="M140.64,44.39,136,39.68l.29-.28c.7.66,1.19.85,1.46.59a.57.57,0,0,0,.13-.27l.86-6.12H138l-2.59,2.53a1.47,1.47,0,0,0-.29,2.06,1,1,0,0,0,.23.24l-.29.28-4.39-4.48.29-.29a1.46,1.46,0,0,0,2.05.24,1.36,1.36,0,0,0,.24-.24l6.51-6.38a1.49,1.49,0,0,0,.27-2.08,2,2,0,0,0-.2-.21l.29-.28,4.39,4.48-.29.29a1.49,1.49,0,0,0-2.09-.21,1.34,1.34,0,0,0-.2.21l-3.13,3.06h6.42a.94.94,0,0,0,.66-.21c.37-.36.22-.91-.44-1.65l.29-.28,3.92,4-.29.28a4.16,4.16,0,0,0-1.32-1,7,7,0,0,0-2.65-.4h-3.64l-1.08,8.73a5.84,5.84,0,0,0-.08.93,1.29,1.29,0,0,0,.33.85Z"/><path class="cls-2" d="M161.06,64.45a3.12,3.12,0,0,1-3.12-.46,5.91,5.91,0,0,1-1.84-2.74l-.57-1.57-3.62,1.38a1.45,1.45,0,0,0-1.08,1.76,1.13,1.13,0,0,0,.08.24l-.39.14-2.14-5.9.38-.14a1.47,1.47,0,0,0,1.79,1.05,1.66,1.66,0,0,0,.31-.12L159.43,55a1.5,1.5,0,0,0,1.09-1.81l-.09-.25.38-.14,2.1,5.84Q164.55,63.18,161.06,64.45Zm-1-2.87a4.15,4.15,0,0,0,1.73-1.09,1.75,1.75,0,0,0,.41-1.88l-.12-.31c-.21-.58-.57-.78-1.1-.59l-4.86,1.76a5.8,5.8,0,0,0,1,1.8c.65.68,1.62.79,2.93.31Z"/><path class="cls-2" d="M156.7,81.83a9.06,9.06,0,0,1-1.79-1.27,5.43,5.43,0,0,1-1.12-1.72,7.32,7.32,0,0,1-.49-2,6.6,6.6,0,0,1,1.3-5.13,7.29,7.29,0,0,1,9.75-1.27,6.4,6.4,0,0,1,2.56,4.62,8.57,8.57,0,0,1-.16,2.72,4.82,4.82,0,0,0-.16,1.25.7.7,0,0,0,.33.5l.57.27.06.42-4.44.57-.06-.48.57-.33a6.62,6.62,0,0,0,2.08-2,4.18,4.18,0,0,0,.71-2.85c-.16-1.32-1.06-2.18-2.69-2.57a11.26,11.26,0,0,0-4.05-.1c-4,.51-5.85,2-5.55,4.43a5.35,5.35,0,0,0,1.11,2.72,8.25,8.25,0,0,0,1.91,1.62Z"/><path class="cls-2" d="M161.63,101.81a9.44,9.44,0,0,1,2.74,4.76l-.52-.13a6,6,0,0,0-1.6-2.55,14.83,14.83,0,0,0-5.29-2.16,14.65,14.65,0,0,0-5.69-.67,5.67,5.67,0,0,0-2.62,1.45l-.53-.14a9.1,9.1,0,0,1,3.53-2.46,9.68,9.68,0,0,1,10,1.9Z"/><path class="cls-2" d="M145.38,117.38l2.63-5.7.37.17a1.47,1.47,0,0,0,.53,2,1.36,1.36,0,0,0,.3.13l3.72,1.72.21-.45-3.92-6.2,1.61-3.48.37.17v.1c-.1.23,0,.59.28,1.08l3.35,5.61a4,4,0,0,1,1.82-1.55,2.81,2.81,0,0,1,2.34,0,3,3,0,0,1,1.89,2.75,7.44,7.44,0,0,1-.82,3.46l-2.62,5.68-.37-.17a1.49,1.49,0,0,0-.58-2l-.25-.11-8.33-3.78a1.47,1.47,0,0,0-2,.45,1.23,1.23,0,0,0-.14.31Zm8.12-1.4,4.52,2.09c.51.23.94,0,1.28-.76a2.1,2.1,0,0,0-.24-2.4,4.34,4.34,0,0,0-1.44-1,2.93,2.93,0,0,0-2.45-.25,3.81,3.81,0,0,0-1.53,2Z"/><path class="cls-2" d="M142.53,123.56a10.09,10.09,0,0,1-1.26-3.21,6.61,6.61,0,0,1-.15-1.88,4,4,0,0,1,.09-1.09l.44.32a5.68,5.68,0,0,0,.62,3,21,21,0,0,0,9.25,6.5,6,6,0,0,0,3-.42l.44.31a9.54,9.54,0,0,1-5.27,1,9.88,9.88,0,0,1-4.64-1.82A10.32,10.32,0,0,1,142.53,123.56Z"/><g id="Слой_2-2" data-name="Слой 2"><g id="Слой_1-2-2" data-name="Слой 1-2"><path class="cls-1" d="M223.65,45.72,233,67a12.86,12.86,0,0,0,1.29,2.5,3,3,0,0,0,2.34,1.28v.72h-9.73v-.72c1.8-.1,2.7-.52,2.7-1.25a9.64,9.64,0,0,0-1-3l-1.38-3.24h-10q-.34.93-.69,1.71a15,15,0,0,0-1.38,4.23c0,1,.87,1.53,2.59,1.57v.72H210.2v-.74a3.54,3.54,0,0,0,2-1,24.4,24.4,0,0,0,3-5.69l7.75-18.39Zm-5.77,16h8.81l-4.42-10.51Z"/><path class="cls-1" d="M264.08,71.51H253v-.69c2,0,2.94-.31,2.94-.92a2.46,2.46,0,0,0-.84-1.38l-8.74-9h-1.08v9c0,1.47,1.14,2.25,3.43,2.33v.72H238v-.75c2.28-.08,3.43-.86,3.43-2.33V49.3c0-1.48-1.15-2.26-3.43-2.33v-.73h10.84V47c-2.35.07-3.52.85-3.52,2.33v9.07h.62l7.67-7.77c1.09-1.1,1.64-1.89,1.64-2.36,0-.81-.84-1.23-2.52-1.27v-.73h9.92V47a7.39,7.39,0,0,0-2.7.58A21.34,21.34,0,0,0,254.46,52l-5.13,5.24,10.31,11a10.13,10.13,0,0,0,2.64,2.15,8.18,8.18,0,0,0,1.76.41Z"/><path class="cls-1" d="M278.78,45.72,288.08,67a12.82,12.82,0,0,0,1.28,2.5,3,3,0,0,0,2.35,1.28v.72H282v-.72c1.81-.1,2.71-.52,2.71-1.25a10.29,10.29,0,0,0-.95-3l-1.38-3.24h-10q-.36.93-.69,1.71a15,15,0,0,0-1.38,4.23c0,1,.86,1.53,2.59,1.57v.72h-7.55v-.74a3.54,3.54,0,0,0,2-1,23.8,23.8,0,0,0,2.94-5.69L278,45.74Zm-5.78,16h8.82L277.4,51.21Z"/><path class="cls-1" d="M317.49,78.46h-.73l-1.05-3.09a7.26,7.26,0,0,0-1.62-3,5,5,0,0,0-3.26-.84H299.58c-1.69,0-2.83.38-3.43,1.14a18.86,18.86,0,0,0-2.36,5.81h-.73V70.75h.52c1.21,0,2.26-.75,3.13-2.24A10.32,10.32,0,0,0,298.07,64c.38-4.57.58-8.19.58-10.85V50.06a2.76,2.76,0,0,0-1.07-2.46,5.4,5.4,0,0,0-2.7-.63v-.73H317V47c-2.24.07-3.36.85-3.36,2.33V67.11c0,1.47.29,2.45.86,2.93a5,5,0,0,0,3,.71Zm-7.91-11.9V51.63c0-1.65-.24-2.71-.73-3.17s-2-.84-4.11-.84a5.33,5.33,0,0,0-3.53.88c-.57.51-.9,1.94-1,4.3l-.27,6.77a47.77,47.77,0,0,1-.41,5.48,14.63,14.63,0,0,1-1.8,5.08h8.7a3.17,3.17,0,0,0,2.59-.82A4.87,4.87,0,0,0,309.58,66.56Z"/><path class="cls-1" d="M318.75,71.51v-.69c2.24-.08,3.36-.86,3.36-2.33V49.3c0-1.48-1.12-2.26-3.36-2.33v-.73H339V51.7h-.84a6,6,0,0,0-1-2.36,4,4,0,0,0-3.34-1.52h-6.15c-1.12,0-1.68.49-1.68,1.49v8.2h5.37a6.33,6.33,0,0,0,3.34-.69,3.39,3.39,0,0,0,1.39-3h.8v9h-.8a3.43,3.43,0,0,0-1.39-3,6.16,6.16,0,0,0-3.34-.73H326v9.4c0,1,.33,1.49,1,1.49h5a12,12,0,0,0,4.21-.54c1.44-.58,2.7-2,3.77-4.35h1.08l-1.73,6.45Z"/><path class="cls-1" d="M374.81,47c-2.21.07-3.32.85-3.32,2.33V68.46c0,1.47,1.12,2.25,3.36,2.33v.72H364.22v-.69c2.25-.08,3.38-.86,3.38-2.33V49.82l-9.79,21.71h-.52L347.71,50.7V68.46q0,2.21,3.69,2.33v.72h-9.07v-.69c2.47-.08,3.71-.85,3.71-2.33V49.3c0-1.48-1.22-2.26-3.64-2.33v-.73H350l8.81,19.27,8.43-19.27h7.6Z"/><path class="cls-1" d="M386.9,71.51H376.3v-.69c2.24-.08,3.35-.86,3.35-2.33V49.3c0-1.48-1.11-2.26-3.35-2.33v-.73h10.6V47c-2.23.07-3.35.85-3.35,2.33V64.75L395.79,49.3c0-1.48-1.12-2.26-3.35-2.33v-.73h10.62V47c-2.25.07-3.37.85-3.37,2.33V68.46c0,1.47,1.12,2.25,3.37,2.33v.72H392.44v-.69c2.23-.08,3.35-.86,3.35-2.33V52L383.58,67.34v1.12c0,1.47,1.12,2.25,3.35,2.33Z"/><path class="cls-1" d="M421.27,59.72h-2L410,71.51h-5.76v-.69a2.7,2.7,0,0,0,1.47-.47,5.84,5.84,0,0,0,1.08-1.14l8-9.76a13.07,13.07,0,0,1-3.9-1.2A6.12,6.12,0,0,1,408.33,50a6.21,6.21,0,0,1,2-2.23,10.68,10.68,0,0,1,5.89-1.47h12.85V47a8.24,8.24,0,0,0-2.47.35c-1,.38-1.46,1.47-1.46,3.28V67.17a3.71,3.71,0,0,0,.9,2.91,5.26,5.26,0,0,0,3,.71v.72h-11.7v-.69a8,8,0,0,0,2.44-.34c1-.38,1.49-1.48,1.49-3.28Zm0-1.38V50.1a5.37,5.37,0,0,0-.15-1.6,1.45,1.45,0,0,0-1.29-.86,8.86,8.86,0,0,0-1.26-.06A8.22,8.22,0,0,0,414,48.76a4.63,4.63,0,0,0-2,4.1,4.73,4.73,0,0,0,2.33,4.27,9.39,9.39,0,0,0,5,1.21Z"/><path class="cls-1" d="M288.49,103.62V95.1c0-1.48-1.13-2.26-3.38-2.33V92h10.63v.78c-2.24.07-3.36.85-3.36,2.33v19.16c0,1.47,1.12,2.25,3.36,2.33v.72H285.11v-.72c2.25-.08,3.38-.86,3.38-2.33v-9.08H276.91v9.08c0,1.47,1.12,2.25,3.36,2.33v.72H269.66v-.72c2.24-.08,3.36-.86,3.36-2.33V95.1c0-1.48-1.12-2.26-3.36-2.33V92h10.61v.78c-2.24.07-3.36.85-3.36,2.33v8.52Z"/><path class="cls-1" d="M310.48,91.52l9.3,21.3a12.82,12.82,0,0,0,1.28,2.5,3,3,0,0,0,2.35,1.25v.72h-9.73v-.72c1.8-.1,2.71-.52,2.71-1.25a10.29,10.29,0,0,0-.95-3l-1.38-3.24h-10q-.36.93-.69,1.71A15,15,0,0,0,302,115c0,1,.86,1.53,2.59,1.57v.72H297v-.72a3.54,3.54,0,0,0,2-1A23.8,23.8,0,0,0,302,109.9l7.75-18.39Zm-5.78,16h8.82L309.1,97Z"/><path class="cls-1" d="M338.67,109.82,329.41,96a8.46,8.46,0,0,0-2.25-2.48,7.32,7.32,0,0,0-2.67-.76V92h12v.8c-2.19.07-3.28.48-3.28,1.23a6.76,6.76,0,0,0,1.17,2.2l6.37,9.63,4.74-9.46a9.44,9.44,0,0,0,1-2.41c0-.63-.9-1-2.7-1.19v-.73h8.35v.73a5.92,5.92,0,0,0-1.71.35c-1.07.47-2.27,2-3.58,4.46l-8,15.18a15.49,15.49,0,0,1-2.57,3.83,4.88,4.88,0,0,1-3.43,1.26,4.66,4.66,0,0,1-2.5-.63,2.38,2.38,0,0,1-1.24-2.13,1.9,1.9,0,0,1,.58-1.43,2,2,0,0,1,1.45-.58,2.48,2.48,0,0,1,2.1,1.57c.42.78.87,1.17,1.33,1.17a1.13,1.13,0,0,0,.91-.45A40.22,40.22,0,0,0,338.67,109.82Z"/><path class="cls-1" d="M379.45,117.31H368.38v-.72c2,0,2.94-.31,2.94-.92a2.54,2.54,0,0,0-.83-1.38l-8.74-9h-1.09v9c0,1.47,1.15,2.25,3.43,2.33v.72H353.34v-.72c2.29-.08,3.43-.86,3.43-2.33V95.1c0-1.48-1.14-2.26-3.43-2.33V92h10.85v.78c-2.35.07-3.53.85-3.53,2.33v9.07h.62L369,96.45c1.1-1.1,1.64-1.89,1.64-2.36,0-.81-.83-1.23-2.51-1.27v-.73H378v.73a7.39,7.39,0,0,0-2.7.58,21.34,21.34,0,0,0-5.46,4.41l-5.12,5.24,10.3,11a10,10,0,0,0,2.65,2.15,8.1,8.1,0,0,0,1.75.41Z"/><path class="cls-1" d="M196.49,162.43c1.34-.05,2-.51,2-1.4V149.58c0-.89-.63-1.35-1.89-1.4v-.43h5.75a9.36,9.36,0,0,1,4.11.79,3.44,3.44,0,0,1,2.12,3.28,3.83,3.83,0,0,1-1.85,3.47,7.38,7.38,0,0,1-4,1,13.41,13.41,0,0,1-1.92-.11v4.88c0,.89.67,1.35,2,1.4v.36h-6.34Zm4.33-7.13h1.25q4,0,4-3.42t-4.44-3.36c-.41,0-.67.09-.77.25a2.17,2.17,0,0,0-.09.8Z"/><path class="cls-1" d="M211,156.56a8.26,8.26,0,0,0,.56,2.65,3.31,3.31,0,0,0,3.12,2.35,3.45,3.45,0,0,0,2.22-.89,6.34,6.34,0,0,0,1.27-1.55l.37.13a7.47,7.47,0,0,1-1.33,2.24,4.63,4.63,0,0,1-3.45,1.59,3.82,3.82,0,0,1-3.24-1.62,5.78,5.78,0,0,1-1.09-3.57,6.1,6.1,0,0,1,1.17-3.8,4.16,4.16,0,0,1,3.49-1.68,3.66,3.66,0,0,1,3.6,2.28,5.76,5.76,0,0,1,.41,1.87Zm4.77-.73c-.16-1.75-.89-2.62-2.21-2.62s-2.18.87-2.48,2.62Z"/><path class="cls-1" d="M228.47,159.46a9,9,0,0,1-1.7,2.49,3.93,3.93,0,0,1-2.83,1.13,3.79,3.79,0,0,1-3.21-1.61,5.68,5.68,0,0,1-1.1-3.54,5.83,5.83,0,0,1,1.31-3.9,4.66,4.66,0,0,1,3.72-1.62,4.83,4.83,0,0,1,2.21.5,1.91,1.91,0,0,1,1.27,1.71,1,1,0,0,1-1,1,1,1,0,0,1-.7-.3,1.07,1.07,0,0,1-.33-.7,1.53,1.53,0,0,0-1.45-1.6,1.41,1.41,0,0,0-.29,0,2.55,2.55,0,0,0-2.27,1.32,5.08,5.08,0,0,0-.69,2.66,5.14,5.14,0,0,0,.87,3,3,3,0,0,0,2.64,1.45,2.89,2.89,0,0,0,1.89-.66,6.3,6.3,0,0,0,1.35-1.56Z"/><path class="cls-1" d="M229.41,162.54a2.21,2.21,0,0,0,1.16-.22,1.24,1.24,0,0,0,.36-1v-7a1.21,1.21,0,0,0-.36-1,2.22,2.22,0,0,0-1.16-.23v-.32h11V153a2.44,2.44,0,0,0-1.16.23,1.24,1.24,0,0,0-.35,1v7c0,.54.12.9.38,1.07a2.3,2.3,0,0,0,1.13.2v.28h-4.83v-.32c.7,0,1.13-.17,1.27-.47a2,2,0,0,0,.12-.8V154.7q0-1.44-1.29-1.44h-1.52q-1.29,0-1.29,1.44v6.53a1.3,1.3,0,0,0,.29,1,1.7,1.7,0,0,0,1.1.26v.33h-4.83Z"/><path class="cls-1" d="M247.18,160.26l2.24-6.35a.8.8,0,0,0,.07-.34c0-.32-.37-.53-1.1-.62v-.32h3.08V153c-.48.08-.88.52-1.19,1.33L246.93,163a19.48,19.48,0,0,1-1.4,3,3.12,3.12,0,0,1-2.57,1.77,2,2,0,0,1-1.14-.32,1.16,1.16,0,0,1-.53-1c0-.66.38-1,1.14-1a2.48,2.48,0,0,1,.77.18,2.63,2.63,0,0,0,.83.23,1,1,0,0,0,.74-.39c0-.05.41-.77,1.11-2.17h0a1.88,1.88,0,0,0,.23-.87.43.43,0,0,0,0-.16L242.22,154a1.65,1.65,0,0,0-1.27-1v-.32h4.71V153c-.92,0-1.38.24-1.38.65a2.26,2.26,0,0,0,.27.88Z"/><path class="cls-1" d="M262.75,157.33a6,6,0,0,1-1.3,3.94,4.52,4.52,0,0,1-3.68,1.7A4.31,4.31,0,0,1,254,161a7.27,7.27,0,0,1-1.18-4.23,11.59,11.59,0,0,1,1.17-5.4,4.68,4.68,0,0,1,4.35-2.82h2.11a2.19,2.19,0,0,0,1.07-.19,1.26,1.26,0,0,0,.54-.9h.44c-.14,1.57-.87,2.45-2.2,2.65a13,13,0,0,1-1.53.06,6.19,6.19,0,0,0-2.59.41q-2.18,1.09-2.52,4.53h.08a4.18,4.18,0,0,1,4-2.63,5,5,0,0,1,3.55,1.32A4.64,4.64,0,0,1,262.75,157.33Zm-2.1,1.2a8.4,8.4,0,0,0-.63-3.39,2.71,2.71,0,0,0-2.55-1.93,2.19,2.19,0,0,0-2,1.22,5,5,0,0,0-.54,2.45,8.56,8.56,0,0,0,.66,3.43,2.82,2.82,0,0,0,2.58,2,2.1,2.1,0,0,0,2-1.3,5.15,5.15,0,0,0,.48-2.48Z"/><path class="cls-1" d="M274.58,153a2.44,2.44,0,0,0-1.16.23,1.21,1.21,0,0,0-.37,1v7a1.2,1.2,0,0,0,.37,1.06,2.31,2.31,0,0,0,1.16.21v.37h-5v-.32a2.43,2.43,0,0,0,1.19-.21,1.19,1.19,0,0,0,.42-1.06v-6.69q0-.84-.42-1.08a2.77,2.77,0,0,0-1.21-.18,1.75,1.75,0,0,0-1.17.31,1.69,1.69,0,0,0-.43,1.11c0,.39-.07,1-.08,1.82a18.77,18.77,0,0,1-.09,2.63,10.28,10.28,0,0,1-.52,2.58,1.75,1.75,0,0,1-1.76,1.31,2.06,2.06,0,0,1-1.23-.36,1.34,1.34,0,0,1-.55-1.12c0-.66.31-1,.93-1,.46,0,.78.29,1,.89.11.36.25.54.44.54.67,0,1-2,1-5.9v-.87a4.08,4.08,0,0,0-.2-1.66c-.21-.4-.73-.61-1.54-.63v-.32h9.22Z"/><path class="cls-1" d="M275.07,162.54a2.21,2.21,0,0,0,1.16-.22,1.24,1.24,0,0,0,.36-1v-7a1.21,1.21,0,0,0-.36-1,2.44,2.44,0,0,0-1.16-.23v-.32H280V153a2.44,2.44,0,0,0-1.16.23,1.24,1.24,0,0,0-.35,1v6h.08l4.38-6.19c0-.58-.24-.91-.67-1a6,6,0,0,0-.84-.08v-.32h4.93V153a2.4,2.4,0,0,0-1.15.23,1.23,1.23,0,0,0-.35,1v7a1.25,1.25,0,0,0,.36,1.07,2.36,2.36,0,0,0,1.14.2v.32h-4.93v-.32a2.18,2.18,0,0,0,1.15-.22,1.24,1.24,0,0,0,.36-1.05v-6h0l-4.38,6.19c0,.59.24.93.67,1a4.76,4.76,0,0,0,.84.07v.33H275.1Z"/><path class="cls-1" d="M286.81,162.54a2.21,2.21,0,0,0,1.16-.22,1.27,1.27,0,0,0,.35-1v-7a1.24,1.24,0,0,0-.35-1,2.44,2.44,0,0,0-1.16-.23v-.32h4.94V153a4.47,4.47,0,0,0-.82.08.83.83,0,0,0-.6.47,2.29,2.29,0,0,0-.09.73v3.45l.16-.07a12.72,12.72,0,0,0,1.69-1.59l.81-.85a7.32,7.32,0,0,0,1.46-1.72c0-.33-.42-.5-1.27-.5v-.32h4.38V153a3.38,3.38,0,0,0-1,.17,6.68,6.68,0,0,0-1.65,1.29l-2.77,2.66,4.4,4.63a3.86,3.86,0,0,0,.7.64,1.67,1.67,0,0,0,.85.2v.19h-4.93v-.32l.52-.05c.4,0,.59-.1.59-.2a1.16,1.16,0,0,0-.25-.41,31.86,31.86,0,0,0-3.35-3.62,1.46,1.46,0,0,0-.33-.22v3.27c0,.61.16,1,.47,1.12a2.82,2.82,0,0,0,1,.15v.28h-4.94Z"/><path class="cls-1" d="M304.46,156.22a8.7,8.7,0,0,0-.28-2.49,1.25,1.25,0,0,0-1.34-.8c-1.07,0-1.6.33-1.6,1v.94a1,1,0,0,1-.32.72,1,1,0,0,1-.73.31c-.66,0-1-.31-1-.92a2.22,2.22,0,0,1,1.39-2,5.67,5.67,0,0,1,2.53-.56,3,3,0,0,1,2.62,1,5.21,5.21,0,0,1,.6,2.87v4.81c0,.48.17.71.5.71a2.65,2.65,0,0,0,1.19-.52v.59a3,3,0,0,1-2,1.2c-1,0-1.48-.57-1.55-1.72a10.23,10.23,0,0,1-1.65,1.2,3.49,3.49,0,0,1-1.72.52,2.2,2.2,0,0,1-1.67-.7,2.37,2.37,0,0,1-.69-1.71,3.26,3.26,0,0,1,1.69-2.69,15,15,0,0,1,3-1.42Zm0,.61-.73.28a7,7,0,0,0-2.2,1.11,2.19,2.19,0,0,0-.68,1.65,2.12,2.12,0,0,0,.37,1.29,1.3,1.3,0,0,0,1.14.59,2.64,2.64,0,0,0,1.17-.3,2.17,2.17,0,0,0,.93-.71Z"/><path class="cls-1" d="M328.1,152.58h-.52a7.9,7.9,0,0,0-1.26-2.55,5,5,0,0,0-7.06-.42,4.73,4.73,0,0,0-.81.92,8.54,8.54,0,0,0-1.19,4.73,8.12,8.12,0,0,0,1.28,4.77,4.87,4.87,0,0,0,4.27,2.13,6.6,6.6,0,0,0,2.84-.58,9.25,9.25,0,0,0,2.36-1.71l.39.46a8.08,8.08,0,0,1-6.09,2.85,7.43,7.43,0,0,1-5.57-2.17,7.69,7.69,0,0,1-2.13-5.62,7.93,7.93,0,0,1,2.16-5.7,7.39,7.39,0,0,1,5.58-2.26,9,9,0,0,1,3,.57,3.49,3.49,0,0,0,1.19.27q.51,0,.87-.81h.48Z"/><path class="cls-1" d="M335.58,156.22a9.11,9.11,0,0,0-.28-2.49,1.28,1.28,0,0,0-1.35-.8c-1.06,0-1.59.33-1.59,1a3.68,3.68,0,0,0,0,.47v.47a1.06,1.06,0,0,1-1.05,1c-.65,0-1-.31-1-.92a2.24,2.24,0,0,1,1.4-2,5.67,5.67,0,0,1,2.53-.56,3,3,0,0,1,2.62,1,5.21,5.21,0,0,1,.6,2.87v4.81c0,.48.16.71.5.71a2.57,2.57,0,0,0,1.18-.52v.59a3,3,0,0,1-2,1.2c-1,0-1.48-.57-1.55-1.72a10.23,10.23,0,0,1-1.65,1.2,3.53,3.53,0,0,1-1.73.52,2.2,2.2,0,0,1-1.67-.7,2.4,2.4,0,0,1-.68-1.71,3.23,3.23,0,0,1,1.68-2.69,15.39,15.39,0,0,1,3-1.42Zm0,.61-.74.28a7.11,7.11,0,0,0-2.26,1.11,2.39,2.39,0,0,0-.31,2.94,1.32,1.32,0,0,0,1.13.59,2.64,2.64,0,0,0,1.17-.3,2.26,2.26,0,0,0,.94-.71Z"/><path class="cls-1" d="M345.34,156.68l2.76,4.24c.66,1,1.34,1.56,2,1.62v.28h-4.52v-.32c.79-.07,1.19-.24,1.19-.5a.65.65,0,0,0-.11-.29l-2.32-3.48-1.76,2.71a3.78,3.78,0,0,0-.61,1.26c0,.23.31.34.92.34v.28h-3.31v-.32a1.72,1.72,0,0,0,1.09-.47,5.64,5.64,0,0,0,.74-.95l2.44-3.53-2-3.11a6.09,6.09,0,0,0-.81-1.08,2.13,2.13,0,0,0-1.26-.45v-.32h4.73v.32c-.65.05-1,.24-1,.59a8.32,8.32,0,0,0,1.14,2.09l.23.37s.16-.23.41-.56a4.78,4.78,0,0,0,1.12-2c0-.31-.31-.48-.92-.53v-.32h3.61v.32a2.86,2.86,0,0,0-1,.26,3.24,3.24,0,0,0-1,1Z"/><path class="cls-1" d="M357.07,156.22a9.51,9.51,0,0,0-.27-2.49,1.28,1.28,0,0,0-1.35-.8c-1.07,0-1.6.33-1.6,1v.94a1,1,0,0,1-.31.72,1,1,0,0,1-.74.31c-.65,0-1-.31-1-.92a2.22,2.22,0,0,1,1.39-2,5.67,5.67,0,0,1,2.53-.56,3,3,0,0,1,2.62,1,5.21,5.21,0,0,1,.6,2.87v4.81c0,.48.17.71.51.71a2.57,2.57,0,0,0,1.18-.52v.59a3,3,0,0,1-2,1.2c-1,0-1.49-.57-1.55-1.72a10.87,10.87,0,0,1-1.65,1.2,3.53,3.53,0,0,1-1.73.52,2.2,2.2,0,0,1-1.67-.7,2.36,2.36,0,0,1-.68-1.71A3.23,3.23,0,0,1,353,158a15.24,15.24,0,0,1,3-1.42Zm0,.61-.73.28a7,7,0,0,0-2.2,1.11,2.19,2.19,0,0,0-.68,1.65,2.26,2.26,0,0,0,.37,1.29,1.3,1.3,0,0,0,1.14.59,2.64,2.64,0,0,0,1.17-.3,2.17,2.17,0,0,0,.93-.71Z"/><path class="cls-1" d="M369.81,150.32a11.69,11.69,0,0,1,3.37-2.89l.21.37a10.13,10.13,0,0,0-2.56,2.78,12.51,12.51,0,0,0-1.35,6.24,18.29,18.29,0,0,0,.51,4.78,8.23,8.23,0,0,0,3.4,4.94l-.29.37a9.51,9.51,0,0,1-3-2.57,11,11,0,0,1-2.64-7.23A10.75,10.75,0,0,1,369.81,150.32Z"/><path class="cls-1" d="M384.48,155.82h-1.17l-5.54,7h-3.44v-.43a1.73,1.73,0,0,0,.88-.28,4.19,4.19,0,0,0,.65-.68l4.79-5.84a7.6,7.6,0,0,1-2.33-.72,3.67,3.67,0,0,1-.35-6.28,6.43,6.43,0,0,1,3.53-.88h7.69v.43a4.65,4.65,0,0,0-1.48.21c-.58.23-.87.88-.87,2v9.9a2.16,2.16,0,0,0,.53,1.74,3.06,3.06,0,0,0,1.82.43v.4h-7.06v-.43a4.81,4.81,0,0,0,1.46-.2c.6-.23.89-.89.89-2Zm0-.83v-4.93a3,3,0,0,0-.09-.95.85.85,0,0,0-.76-.52h-.76a5,5,0,0,0-2.76.7,3.06,3.06,0,0,0,.17,5,5.52,5.52,0,0,0,3,.72Z"/><path class="cls-1" d="M389.84,162.54a2.21,2.21,0,0,0,1.16-.22,1.24,1.24,0,0,0,.36-1v-7a1.21,1.21,0,0,0-.36-1,2.22,2.22,0,0,0-1.16-.23v-.32h4.94V153a4.45,4.45,0,0,0-.81.08.83.83,0,0,0-.6.47,2.29,2.29,0,0,0-.09.73v3.45l.15-.07a11.13,11.13,0,0,0,1.7-1.59l.81-.85a7.75,7.75,0,0,0,1.46-1.72c0-.33-.42-.5-1.27-.5v-.32h4.38V153a3.38,3.38,0,0,0-1,.17,6.68,6.68,0,0,0-1.65,1.29l-2.77,2.66,4.39,4.63a4.33,4.33,0,0,0,.71.64,1.65,1.65,0,0,0,.84.2v.19h-4.92v-.32l.52-.05c.39,0,.59-.1.59-.2a1.16,1.16,0,0,0-.25-.41,33.16,33.16,0,0,0-3.39-3.62,1.46,1.46,0,0,0-.33-.22v3.27c0,.61.15,1,.47,1.12a2.82,2.82,0,0,0,1,.15v.28h-4.94Z"/><path class="cls-1" d="M407.58,160.26l2.24-6.35a.8.8,0,0,0,.07-.34c0-.32-.37-.53-1.1-.62v-.32h3.08V153c-.48.08-.88.52-1.19,1.33L407.33,163a18.2,18.2,0,0,1-1.4,3,3.12,3.12,0,0,1-2.57,1.77,2,2,0,0,1-1.14-.32,1.16,1.16,0,0,1-.53-1c0-.66.38-1,1.14-1a2.48,2.48,0,0,1,.77.18,2.63,2.63,0,0,0,.83.23,1.07,1.07,0,0,0,.75-.39c0-.05.4-.77,1.1-2.17h0a1.88,1.88,0,0,0,.23-.87.43.43,0,0,0,0-.16L402.62,154a1.65,1.65,0,0,0-1.27-1v-.32h4.71V153c-.92,0-1.38.24-1.38.65a2.26,2.26,0,0,0,.27.88Z"/><path class="cls-1" d="M415.05,162.54a2.86,2.86,0,0,0,1.23-.18c.31-.17.46-.53.46-1.09v-7.54c0-.32-.2-.48-.59-.48-1.66,0-2.62,1-2.87,2.92h-.53l.18-3.54h9.54l.18,3.54h-.53c-.24-1.94-1.21-2.92-2.89-2.92q-.57,0-.57.48v7.54c0,.56.15.92.46,1.09a2.86,2.86,0,0,0,1.23.18v.28h-5.3Z"/><path class="cls-1" d="M423.17,162.54a2.21,2.21,0,0,0,1.16-.22,1.24,1.24,0,0,0,.36-1v-7a1.21,1.21,0,0,0-.36-1,2.22,2.22,0,0,0-1.16-.23v-.32h4.94V153a2.44,2.44,0,0,0-1.16.23,1.18,1.18,0,0,0-.34,1v6h0l4.38-6.19c0-.58-.24-.91-.67-1a5.69,5.69,0,0,0-.83-.08v-.32h4.92V153a2.4,2.4,0,0,0-1.15.23,1.24,1.24,0,0,0-.35,1v7a1.21,1.21,0,0,0,.37,1.07,2.3,2.3,0,0,0,1.13.2v.32h-4.83v-.32a2.14,2.14,0,0,0,1.14-.22,1.24,1.24,0,0,0,.36-1.05v-6h0l-4.5,6.22c0,.59.22.92.66,1a4.76,4.76,0,0,0,.84.07v.3h-4.94Z"/><path class="cls-1" d="M441.58,158H441l-3.7,4.88h-2.51v-.28a1.5,1.5,0,0,0,1-.66l3-4a5.72,5.72,0,0,1-1.76-.5,2.19,2.19,0,0,1-1.28-2.06q0-2.72,4-2.72H445V153a2.22,2.22,0,0,0-1.16.23,1.21,1.21,0,0,0-.36,1v7a1.24,1.24,0,0,0,.36,1.05,2.21,2.21,0,0,0,1.16.22v.36h-4.82v-.32c.7,0,1.12-.17,1.26-.47a2,2,0,0,0,.12-.8Zm0-.71v-3.63c0-.23-.35-.34-1.05-.34-1.74,0-2.61.62-2.61,1.87,0,1.43.9,2.14,2.7,2.14Z"/><path class="cls-1" d="M451.27,160.39a10.87,10.87,0,0,1-3.62,5.41,8.63,8.63,0,0,1-1.63,1.13l-.21-.37a9.5,9.5,0,0,0,2.51-2.66,12.57,12.57,0,0,0,1.4-6.37,17.71,17.71,0,0,0-.64-5.22,8.45,8.45,0,0,0-3.27-4.51l.29-.37a11.63,11.63,0,0,1,5.61,9.81A11.15,11.15,0,0,1,451.27,160.39Z"/></g></g></g></g></svg>